<svg version="1.0" xmlns="http://www.w3.org/2000/svg"
width="496.000000pt" height="400.000000pt" viewBox="0 0 496.000000 400.000000"
preserveAspectRatio="xMidYMid meet">
    <g transform="translate(0.000000,400.000000) scale(0.100000,-0.100000)"
    fill="#ffffff" stroke="none">
        <path d="M1913 2862 c-282 -284 -513 -521 -513 -527 0 -13 112 -125 125 -125
        6 0 212 202 458 450 246 248 451 450 455 450 4 0 133 -126 287 -280 l280 -280
        128 0 c70 0 127 2 127 5 0 10 -818 825 -826 824 -5 -1 -240 -234 -521 -517z"/>
        <path d="M1346 2791 c-397 -398 -516 -522 -510 -534 14 -23 1024 -1022 1037
        -1025 7 -1 40 26 75 61 l62 63 -455 454 c-250 249 -455 456 -455 460 0 3 189
        194 419 424 230 230 434 433 452 452 l33 34 -64 65 c-35 36 -67 65 -70 65 -3
        0 -238 -233 -524 -519z"/>
        <path d="M2440 2755 l-64 -65 69 -70 69 -70 136 0 135 0 -135 135 c-74 74
        -137 135 -140 135 -3 0 -35 -29 -70 -65z"/>
        <path d="M1706 2351 c-7 -11 -6 -608 1 -643 5 -25 9 -28 48 -28 31 0 45 5 49
        17 4 9 6 126 6 261 -1 134 1 246 3 248 4 4 92 -117 199 -273 16 -23 34 -45 39
        -49 13 -7 52 42 210 269 22 32 43 56 46 54 2 -3 4 -115 3 -249 0 -135 2 -252
        6 -261 4 -12 18 -17 50 -17 l44 0 0 340 0 340 -58 0 c-67 0 -56 10 -175 -161
        -48 -68 -94 -133 -103 -144 l-16 -20 -14 20 c-16 22 -117 163 -178 250 l-39
        55 -58 0 c-32 0 -60 -4 -63 -9z"/>
        <path d="M2660 2036 c0 -178 3 -331 6 -340 4 -11 19 -16 50 -16 l44 0 0 253
        c0 138 4 257 8 264 5 8 48 -44 121 -147 62 -88 117 -162 121 -165 10 -6 27 14
        109 130 87 125 143 196 148 191 3 -2 5 -120 6 -263 l2 -258 48 -3 47 -3 0 340
        0 341 -58 0 c-55 0 -60 -2 -87 -36 -29 -37 -108 -148 -168 -236 -18 -26 -35
        -48 -39 -48 -4 0 -18 15 -30 34 -13 19 -63 91 -112 160 l-90 126 -63 0 -63 0
        0 -324z"/>
        <path d="M3725 2339 c-102 -42 -150 -125 -125 -218 21 -79 75 -111 249 -147
        63 -13 122 -26 132 -29 30 -10 59 -55 59 -91 0 -84 -55 -119 -185 -119 -91 0
        -131 16 -185 69 l-34 33 -33 -21 c-18 -11 -33 -26 -33 -32 0 -24 83 -94 138
        -116 45 -18 77 -22 152 -22 83 0 102 3 152 27 103 50 147 135 118 230 -25 85
        -105 132 -265 157 -127 19 -175 49 -175 109 0 110 189 150 310 66 l39 -27 31
        22 c16 12 30 25 30 30 0 15 -66 63 -112 81 -62 26 -197 24 -263 -2z"/>
        <path d="M966 1759 c-31 -34 -56 -67 -56 -73 0 -6 67 -77 148 -156 81 -80 311
        -305 510 -500 199 -195 371 -356 381 -358 10 -2 32 12 52 35 19 21 73 74 119
        117 47 44 219 212 382 373 l297 293 -137 0 -136 0 -179 -177 c-99 -98 -226
        -224 -283 -280 -57 -57 -110 -103 -117 -103 -8 0 -34 21 -59 48 -74 77 -849
        837 -858 840 -4 2 -33 -25 -64 -59z"/>
        <path d="M2700 1183 c-171 -169 -310 -313 -310 -320 0 -11 101 -114 122 -125
        3 -1 177 167 387 375 l380 377 -135 0 -134 0 -310 -307z"/>
    </g>
</svg>
